<svg id="Lager_1" data-name="Lager 1" xmlns="http://www.w3.org/2000/svg" viewBox="0 0 1609.55 346.56"><defs><style>.cls-1{fill:#fff;}</style></defs><path class="cls-1" d="M380.41,491.43c-.29-1.43-3.28-2.14-8.67-4h0c-10.63-3.65-21.74-10.37-27.61-24.37-6-13.59.68-26.38,3.11-45.57.49-3.85,1.44-19.09-5.37-31.51-7.73-14.09-24.38-28.2-56.35-23.36-4.93.74-16.3,3.81-25.24-5.95-7.74-8.47-6.73-33.95-8.36-51.59-2.93-31.77-14.21-46.21-17.75-51.18-10.27-14.42-25.15-21.32-45.18-33-23.31-13.57-22.22-36.62-18.46-48.12a80.93,80.93,0,0,1,5.55-12.08c1.83-3.45,5-7.21,3.22-7.67-3.94-1-13.14,6.4-17.53,11.52-.8.93-1.59,1.89-2.36,2.92-7.25,9.77-24,46.55,11.49,75.31,6.55,5.3,26.89,12.64,36.45,30.06a62.77,62.77,0,0,1,9,22.16c2.51,13.1,2.42,38.23,3,43.92a108.61,108.61,0,0,0,3.31,18.15c7.12,25.72,27.31,39.23,47.86,40.62,9.09.62,27.77-1.54,31-1.42,6.29-.06,12.6,3.34,14.76,13.8,1.72,8.4-.66,22.12-.75,22.87-2,16.2.8,36,19.32,51.56A52,52,0,0,0,372,495.36c6.53-.7,8.64-3,8.45-3.93" transform="translate(-149.03 -149.03)"/><path class="cls-1" d="M432.1,348.58C439.83,341.42,466,329,466,288.1c0-11.28-7.61-48.47-46.47-60.19a75,75,0,0,0-20-3.14,79.35,79.35,0,0,0-21.42,2.53c-13.29,3.47-25.78,8-35.89,7.82-12.66-.22-20.52-6.54-35.8-28.46-6.21-10.38-25.5-41.73-55.61-53.28a63.59,63.59,0,0,0-29.27-4c-12.07,1.19-17.8,6.14-21.28,11-2.45,3.38-3.18,7.29-1.91,8.13.62.43,1.66.28,2.91.1,5.06-1.11,15-1,19.6-.31,28.12,4.39,45.85,29.63,51.79,40.93,8.4,15.93,25.82,41.16,37.75,49,24.43,16.12,49.79,8.88,59.94,6.8,9.85-2,18.79-6.21,30.57-5.27,15.18,1.21,24.4,12.35,27.28,18.88,10.17,23-7.16,35.32-9.66,37.77-3.74,3.66-5.91,4.79-9.81,8.45-14.43,13.59-20.31,27.95-15.1,47.92,4.55,12.59,13.27,33.86,14.67,38.86,5.93,21.17,4.3,34.46.58,43.07a28.53,28.53,0,0,1-16,15.89c-2.65,1.37,1,4.28,7.43,4.28,10,0,20.07-5.48,27.08-16.1,8-12.14,11.76-31,5.43-56.11-5.8-21.83-11.17-31-10.09-41.14C423.44,354.85,429.32,351.15,432.1,348.58Z" transform="translate(-149.03 -149.03)"/><path class="cls-1" d="M605.2,314.24c0-10.35-8-16.63-18.49-16.63H559.17v33.27h27.54c10.54,0,18.49-6.28,18.49-16.64m-2.59,83.56L578.39,354H559.17V397.8H532.92V274.5h57.67c25.7,0,41.41,16.82,41.41,39.74,0,21.82-13.68,33.46-27,36.6l27.73,47Z" transform="translate(-149.03 -149.03)"/><path class="cls-1" d="M685.36,325c-14.6,0-20.89,10.9-22,19.77h44c-.56-8.5-6.47-19.77-22-19.77m-46.21,28.09c0-25.88,19-46.77,46.21-46.77,26.62,0,44.74,20,44.74,49.17v5.18H663.74c1.47,11.28,10.53,20.7,25.69,20.7,7.58,0,18.11-3.32,23.84-8.87l10.36,15.16C714.75,395.76,700.7,400,686.84,400c-27.17,0-47.69-18.3-47.69-46.95" transform="translate(-149.03 -149.03)"/><path class="cls-1" d="M807.59,366V337.15c-3.88-5.91-12.38-10.16-20.15-10.16-13.31,0-22.55,9.24-22.55,24.58s9.24,24.58,22.55,24.58c7.77,0,16.27-4.43,20.15-10.16m-63,54.53,10.53-17c7.21,7.95,16.64,11.1,27.92,11.1s24.58-5,24.58-22.56V383c-7,8.87-16.63,14-27.54,14-22.37,0-39.37-15.71-39.37-45.47,0-29.21,16.82-45.47,39.37-45.47,10.72,0,20.33,4.62,27.54,13.68V308.32h23.66V391.5c0,34-26.25,42.33-48.24,42.33-15.35,0-27.18-3.51-38.45-13.31" transform="translate(-149.03 -149.03)"/><path class="cls-1" d="M850,308.32h23.48V397.6H850Zm-2.4-23.67a14.05,14.05,0,1,1,14,14.05,14.16,14.16,0,0,1-14-14.05" transform="translate(-149.03 -149.03)"/><path class="cls-1" d="M958.47,352.86c0-13.86-8.32-25.88-22.92-25.88s-22.74,12-22.74,25.88c0,14.05,8.14,26.07,22.74,26.07s22.92-12,22.92-26.07m-70.06,0c0-25.32,17.75-46.76,47.14-46.76,29.58,0,47.32,21.44,47.32,46.76,0,25.51-17.74,47-47.32,47-29.39,0-47.14-21.45-47.14-47" transform="translate(-149.03 -149.03)"/><path class="cls-1" d="M1058,397.6v-54c0-12.38-6.47-16.64-16.45-16.64a25.43,25.43,0,0,0-20.33,10.54V397.6H997.74V308.32h23.48V320c5.72-6.84,16.63-13.86,31.23-13.86,19.6,0,29,11.09,29,28.46v63Z" transform="translate(-149.03 -149.03)"/><polygon class="cls-1" points="1078.87 248.56 1078.87 196.81 1020.64 196.81 1020.64 248.56 994.4 248.56 994.4 125.27 1020.64 125.27 1020.64 173.7 1078.87 173.7 1078.87 125.27 1105.31 125.27 1105.31 248.56 1078.87 248.56"/><path class="cls-1" d="M1336.34,368.76V337.34c-3.88-5.92-12.38-10.17-20.33-10.17-13.31,0-22.56,10.35-22.56,25.88,0,15.34,9.25,25.88,22.56,25.88,8,0,16.45-4.25,20.33-10.17m0,28.84V386.14c-7,8.87-16.82,13.68-27.54,13.68-22.56,0-39.56-17-39.56-46.77,0-29.21,16.82-46.95,39.56-46.95a34,34,0,0,1,27.35,13.68V308.32H1360V397.6Z" transform="translate(-149.03 -149.03)"/><polygon class="cls-1" points="1229.73 125.27 1230.12 125.27 1252.82 125.27 1253.21 125.27 1253.21 125.66 1253.21 248.16 1253.21 248.56 1252.81 248.56 1230.12 248.56 1229.73 248.56 1229.73 248.17 1229.73 125.66 1229.73 125.27"/><polygon class="cls-1" points="1272.36 125.27 1272.75 125.27 1295.44 125.27 1295.83 125.27 1295.83 125.67 1295.83 248.17 1295.83 248.56 1295.42 248.56 1272.76 248.56 1272.36 248.56 1272.36 248.16 1272.36 125.67 1272.36 125.27"/><path class="cls-1" d="M1526.84,368.76V337.34c-3.88-5.92-12.38-10.17-20.33-10.17-13.31,0-22.55,10.35-22.55,25.88,0,15.34,9.24,25.88,22.55,25.88,8,0,16.45-4.25,20.33-10.17m0,28.84V386.14c-7,8.87-16.82,13.68-27.54,13.68-22.55,0-39.56-17-39.56-46.77,0-29.21,16.82-46.95,39.56-46.95a34,34,0,0,1,27.36,13.68V308.32h23.84V397.6Z" transform="translate(-149.03 -149.03)"/><path class="cls-1" d="M1629.51,397.6v-54c0-12.38-6.47-16.64-16.45-16.64a25.43,25.43,0,0,0-20.33,10.54V397.6h-23.48V308.32h23.48V320c5.73-6.84,16.63-13.86,31.24-13.86,19.59,0,29,11.09,29,28.46v63Z" transform="translate(-149.03 -149.03)"/><path class="cls-1" d="M1734.92,368.76V337.15c-3.88-5.91-12.38-10.17-20.33-10.17-13.31,0-22.55,10.54-22.55,26.07,0,15.34,9.24,25.88,22.55,25.88,8,0,16.45-4.25,20.33-10.17m0,28.84V386.14c-7,8.87-16.82,13.68-27.54,13.68-22.55,0-39.56-17-39.56-46.77,0-29.21,16.82-46.95,39.56-46.95a34.36,34.36,0,0,1,27.54,13.68V274.3h23.66V397.6Z" transform="translate(-149.03 -149.03)"/></svg>